<svg width="37" height="37" viewBox="0 0 37 37" fill="none" xmlns="http://www.w3.org/2000/svg">
<path d="M3.65982 33.3402L10.3758 31.4933C12.7824 33.0044 15.6927 33.8998 18.7708 33.8998C27.4457 33.8998 34.4415 26.904 34.4415 18.2292C34.4415 9.55432 27.4457 2.55848 18.7708 2.55848C10.096 2.55848 3.10016 9.55432 3.10016 18.2292C3.10016 21.3073 3.99562 24.2176 5.50673 26.6242L3.65982 33.3402Z" fill="#5D5FEF" stroke="white" stroke-width="5" stroke-miterlimit="10"/>
<path d="M26.5503 22.4826C25.487 24.7213 23.5281 25.0011 23.5281 25.0011C21.8491 25.3369 19.7224 24.6094 18.0434 23.8258C15.6368 22.7065 13.5661 20.9156 12.1669 18.6209C11.5513 17.5576 10.9916 16.3263 10.9356 15.151C10.9356 15.151 10.7118 13.1922 12.6146 11.6251C12.7825 11.5132 12.9504 11.4572 13.1743 11.4572H14.0138C14.3496 11.4572 14.6854 11.6811 14.7973 12.0169L16.0846 15.151C16.1965 15.4868 16.1405 15.8226 15.9167 16.1024L15.0772 16.9979C14.7973 17.2777 14.7973 17.6695 14.9652 18.0053C15.0212 18.1172 15.1331 18.2851 15.301 18.453C16.3084 19.7962 17.6516 20.8036 19.1627 21.4752C19.3866 21.5872 19.5545 21.6431 19.7224 21.6991C20.1142 21.811 20.45 21.6431 20.6738 21.3633L21.3454 20.3559C21.5133 20.0761 21.8491 19.9082 22.1849 19.9641L25.5429 20.4678C25.8787 20.5238 26.1586 20.8036 26.2705 21.1394L26.4944 21.9789C26.6063 22.0909 26.6063 22.3147 26.5503 22.4826Z" fill="white"/>
</svg>
