<svg width="37" height="37" viewBox="0 0 37 37" fill="none" xmlns="http://www.w3.org/2000/svg">
<path d="M3.65981 33.3401L10.3758 31.4932C12.7824 33.0043 15.6926 33.8997 18.7708 33.8997C27.4456 33.8997 34.4414 26.9039 34.4414 18.2291C34.4414 9.55429 27.4456 2.55847 18.7708 2.55847C10.096 2.55847 3.10015 9.55429 3.10015 18.2291C3.10015 21.3073 3.99561 24.2175 5.50671 26.6241L3.65981 33.3401Z" fill="#5D5FEF" stroke="white" stroke-width="5" stroke-miterlimit="10"/>
<path d="M26.5503 22.4826C25.4869 24.7212 23.5281 25.001 23.5281 25.001C21.8491 25.3368 19.7223 24.6093 18.0433 23.8258C15.6368 22.7064 13.566 20.9155 12.1669 18.6209C11.5512 17.5575 10.9916 16.3262 10.9356 15.1509C10.9356 15.1509 10.7117 13.1921 12.6146 11.625C12.7825 11.5131 12.9504 11.4571 13.1742 11.4571H14.0137C14.3495 11.4571 14.6853 11.681 14.7973 12.0168L16.0845 15.1509C16.1964 15.4867 16.1405 15.8225 15.9166 16.1024L15.0771 16.9978C14.7973 17.2777 14.7973 17.6694 14.9652 18.0052C15.0211 18.1172 15.1331 18.2851 15.301 18.453C16.3084 19.7962 17.6516 20.8036 19.1627 21.4752C19.3865 21.5871 19.5544 21.6431 19.7223 21.699C20.1141 21.811 20.4499 21.6431 20.6738 21.3632L21.3454 20.3558C21.5133 20.076 21.8491 19.9081 22.1849 19.9641L25.5429 20.4678C25.8787 20.5237 26.1585 20.8036 26.2704 21.1394L26.4943 21.9789C26.6062 22.0908 26.6062 22.3147 26.5503 22.4826Z" fill="white"/>
</svg>
