<svg width="40" height="40" viewBox="0 0 40 40" fill="none" xmlns="http://www.w3.org/2000/svg">
<path d="M20 20.4167C22.0667 20.4167 23.75 18.7333 23.75 16.6667C23.75 14.6 22.0667 12.9167 20 12.9167C17.9333 12.9167 16.25 14.6 16.25 16.6667C16.25 18.7333 17.9333 20.4167 20 20.4167ZM27.5 27.0833C27.5 24.5833 22.5 23.3333 20 23.3333C17.5 23.3333 12.5 24.5833 12.5 27.0833V28.3333H27.5V27.0833ZM31.6667 5H8.33333C6.5 5 5 6.5 5 8.33333V31.6667C5 33.5 6.5 35 8.33333 35H31.6667C33.5 35 35 33.5 35 31.6667V8.33333C35 6.5 33.5 5 31.6667 5ZM31.6667 31.6667H8.33333V8.33333H31.6667V31.6667Z" fill="url(#paint0_linear_1027_6033)"/>
<defs>
<linearGradient id="paint0_linear_1027_6033" x1="5" y1="20" x2="35" y2="20" gradientUnits="userSpaceOnUse">
<stop stop-color="#846BFA"/>
<stop offset="1" stop-color="#49DCFC"/>
</linearGradient>
</defs>
</svg>
