<svg width="151" height="151" viewBox="0 0 151 151" fill="none" xmlns="http://www.w3.org/2000/svg">
<path d="M24.0352 83.2213C25.3105 83.4406 26.4772 83.9683 27.5838 84.626C30.8751 86.5829 33.2574 89.8723 34.1797 93.5887C34.349 93.0328 34.9255 91.5062 35.1388 91.059C35.9213 89.4193 36.7873 87.8677 38.27 86.7535C44.5434 82.0384 50.8389 89.0474 52.2551 94.7529C52.318 94.2982 53.1866 91.3385 53.3971 90.8513C54.4879 88.3267 56.3194 85.6532 59.0732 84.7963C64.7597 83.0269 68.9386 88.2279 70.2415 93.0797C70.2415 93.0797 70.47 92.1592 70.6194 91.7098C70.8729 90.9472 71.1632 90.2012 71.5399 89.4896C72.6433 87.4046 74.3213 85.4854 76.5778 84.6406C81.8814 82.655 87.88 86.8377 88.7666 92.152C88.7666 92.152 88.9277 91.4205 89.066 91.0742C89.4525 90.1062 89.9558 89.1819 90.5249 88.3096C91.8626 86.2578 93.6719 84.4067 95.9399 83.4083C100.54 81.3835 108.951 85.0926 108.683 90.945C108.681 90.9453 109.029 90.1284 109.056 90.0815C109.375 89.52 109.751 88.9876 110.129 88.4653C111.047 87.1979 112.034 86.0001 113.231 84.985C117.507 81.3581 121.253 81.7389 126.197 83.3995" stroke="#846BFA" stroke-width="2" stroke-miterlimit="1.5" stroke-linecap="round" stroke-linejoin="round"/>
<path d="M23.2793 71.0539C24.5179 71.203 25.6963 71.6714 26.8254 72.1804C30.0196 73.6203 32.4885 75.9257 34.7334 78.5478C34.7353 78.5497 35.5675 77.1804 35.6497 77.0658C36.4465 75.9595 37.5005 75.0289 38.6837 74.3522C43.1684 71.7876 48.928 73.5653 51.1197 78.1604C51.1197 77.7239 51.9234 76.5996 52.0943 76.4043C53.4298 74.8789 55.0517 73.438 56.9778 72.7255C61.6302 71.0039 67.7789 73.3298 70.0962 77.7489C70.1297 77.0134 70.9173 75.8174 70.9968 75.7187C72.249 74.1578 74.0428 72.9284 76.0037 72.4887C80.6697 71.442 85.7143 73.7565 87.9158 78.0072C88.254 76.9474 88.9398 75.8655 89.1316 75.6516C90.5623 74.0546 92.3403 72.7638 94.3934 72.1064C99.4456 70.4885 106.37 73.4474 108.382 77.0092C108.302 76.7123 108.457 76.0858 108.483 76.0342C108.791 75.4474 109.211 74.9289 109.67 74.4531C110.897 73.1794 112.397 72.1633 113.959 71.3467C118.571 68.935 125.607 68.7584 128.538 73.9467" stroke="#846BFA" stroke-width="2" stroke-miterlimit="1.5" stroke-linecap="round" stroke-linejoin="round"/>
<path d="M22.6504 56.8198C23.8219 56.9464 24.9965 56.489 26.237 56.7486C30.6023 57.6621 33.1631 60.547 35.6606 63.8453C35.8392 63.2516 36.2243 62.7726 36.4449 62.5124C37.5813 61.1709 39.0272 59.9766 40.683 59.3375C45.117 57.6263 48.7521 60.3185 50.8773 63.9795C50.8773 63.9795 51.1479 63.5506 51.309 63.3553C51.6094 62.9907 51.9256 62.6381 52.2536 62.2978C53.4722 61.0339 54.9169 60.0314 56.6008 59.4911C60.9801 58.086 66.4637 60.1203 68.6475 64.2321C68.6657 64.0871 69.7319 62.4858 69.8389 62.3563C71.3649 60.5128 73.1881 59.1796 75.4697 58.4326C80.5615 56.7651 84.8331 59.9567 87.0906 64.3477C87.1737 63.7667 88.2437 62.4776 88.3523 62.3538C89.6492 60.8759 91.0742 59.5515 92.8313 58.6348C97.2852 56.3108 105.337 56.7632 106.876 62.8033C106.858 62.8068 107.279 62.0534 107.346 61.9547C107.81 61.2649 108.354 60.6271 108.946 60.0434C110.395 58.6158 112.188 57.5257 114.072 56.773C117.637 55.3482 121.679 56.2915 124.763 58.449C125.726 59.1223 126.373 60.2283 127.291 60.8579" stroke="#846BFA" stroke-width="2" stroke-miterlimit="1.5" stroke-linecap="round" stroke-linejoin="round"/>
</svg>
