<svg width="151" height="152" viewBox="0 0 151 152" fill="none" xmlns="http://www.w3.org/2000/svg">
<path d="M24.0352 83.4061C25.3105 83.6259 26.4772 84.1548 27.5838 84.814C30.8751 86.7752 33.2574 90.0719 34.1797 93.7966C34.349 93.2394 34.9255 91.7095 35.1388 91.2612C35.9213 89.6179 36.7873 88.0628 38.27 86.9461C44.5434 82.2206 50.8389 89.2452 52.2551 94.9634C52.318 94.5076 53.1866 91.5413 53.3971 91.0531C54.4879 88.5228 56.3194 85.8434 59.0732 84.9847C64.7597 83.2113 68.9386 88.4238 70.2415 93.2865C70.2415 93.2865 70.47 92.3639 70.6194 91.9135C70.8729 91.1492 71.1632 90.4015 71.5399 89.6884C72.6433 87.5987 74.3213 85.6753 76.5778 84.8286C81.8814 82.8386 87.88 87.0305 88.7666 92.3566C88.7666 92.3566 88.9277 91.6235 89.066 91.2764C89.4525 90.3063 89.9558 89.38 90.5249 88.5057C91.8626 86.4494 93.6719 84.5941 95.9399 83.5936C100.54 81.5642 108.951 85.2816 108.683 91.147C108.683 91.147 109.029 90.3285 109.056 90.2816C109.375 89.7188 109.751 89.1852 110.129 88.6618C111.047 87.3915 112.034 86.1911 113.231 85.1737C117.507 81.5388 121.253 81.9205 126.197 83.5847" stroke="#846BFA" stroke-width="2" stroke-miterlimit="1.5" stroke-linecap="round" stroke-linejoin="round"/>
<path d="M23.2793 71.2118C24.5179 71.3612 25.6963 71.8307 26.8254 72.3408C30.0196 73.784 32.4885 76.0944 34.7334 78.7224C34.7353 78.7243 35.5675 77.3519 35.6497 77.2371C36.4465 76.1284 37.5005 75.1957 38.6837 74.5174C43.1684 71.9471 48.928 73.7288 51.1197 78.3341C51.1197 77.8966 51.9234 76.7698 52.0943 76.5741C53.4298 75.0453 55.0517 73.6012 56.9778 72.8871C61.6302 71.1617 67.7789 73.4927 70.0962 77.9217C70.1297 77.1846 70.9173 75.9859 70.9968 75.8869C72.249 74.3226 74.0428 73.0905 76.0037 72.6498C80.6697 71.6007 85.7143 73.9204 87.9158 78.1806C88.254 77.1184 88.9398 76.0341 89.1316 75.8197C90.5623 74.2192 92.3403 72.9255 94.3934 72.2666C99.4456 70.6452 106.37 73.6106 108.382 77.1803C108.302 76.8828 108.457 76.2549 108.483 76.2032C108.791 75.6151 109.211 75.0954 109.67 74.6186C110.897 73.342 112.397 72.3237 113.959 71.5052C118.571 69.0882 125.607 68.9112 128.538 74.111" stroke="#846BFA" stroke-width="2" stroke-miterlimit="1.5" stroke-linecap="round" stroke-linejoin="round"/>
<path d="M22.6504 56.9459C23.8219 57.0728 24.9965 56.6144 26.237 56.8745C30.6023 57.7901 33.1631 60.6814 35.6606 63.987C35.8392 63.392 36.2243 62.9119 36.4449 62.6511C37.5813 61.3067 39.0272 60.1097 40.683 59.4692C45.117 57.7542 48.7521 60.4524 50.8773 64.1215C50.8773 64.1215 51.1479 63.6917 51.309 63.4959C51.6094 63.1305 51.9256 62.7771 52.2536 62.436C53.4722 61.1693 54.9169 60.1646 56.6008 59.6231C60.9801 58.2149 66.4637 60.2538 68.6475 64.3747C68.6657 64.2294 69.7319 62.6245 69.8389 62.4947C71.3649 60.6471 73.1881 59.3109 75.4697 58.5622C80.5615 56.891 84.8331 60.0897 87.0906 64.4905C87.1737 63.9082 88.2437 62.6162 88.3523 62.4922C89.6492 61.011 91.0742 59.6837 92.8313 58.765C97.2852 56.4358 105.337 56.8891 106.876 62.9427C106.858 62.9462 107.279 62.1911 107.346 62.0922C107.81 61.4009 108.354 60.7617 108.946 60.1767C110.395 58.7459 112.188 57.6534 114.072 56.899C117.637 55.4711 121.679 56.4164 124.763 58.5787C125.726 59.2535 126.373 60.3619 127.291 60.9929" stroke="#846BFA" stroke-width="2" stroke-miterlimit="1.5" stroke-linecap="round" stroke-linejoin="round"/>
</svg>
