<svg width="71" height="71" viewBox="0 0 71 71" fill="none" xmlns="http://www.w3.org/2000/svg">
<path d="M59.014 48.5975C58.8439 46.6407 59.047 44.6289 58.9676 42.6649C58.839 39.4814 58.4126 36.3084 58.341 33.1231C56.5954 34.7071 55.0507 36.5214 53.2767 38.0739C51.2734 39.8269 48.9916 41.53 47.2927 43.5865C46.9688 38.8565 46.6537 34.1236 46.3573 29.3912C42.7396 32.5326 38.9659 35.8239 35.6448 39.257L34.0276 25.1953C29.9115 28.1006 26.316 31.7702 22.1719 34.6844C22.0879 30.6512 21.6204 26.4879 21.7402 22.4824C18.3745 24.9826 15.1895 28.235 12.1289 31.0911" stroke="url(#paint0_linear_1027_4289)" stroke-width="3" stroke-miterlimit="1.5" stroke-linecap="round" stroke-linejoin="round"/>
<defs>
<linearGradient id="paint0_linear_1027_4289" x1="12.1289" y1="35.54" x2="59.014" y2="35.54" gradientUnits="userSpaceOnUse">
<stop stop-color="#846BFA"/>
<stop offset="1" stop-color="#49DCFC"/>
</linearGradient>
</defs>
</svg>
