<svg width="15" height="15" viewBox="0 0 15 15" fill="none" xmlns="http://www.w3.org/2000/svg">
<path d="M14.5152 5.04397L10.0185 4.39045L8.00833 0.315254C7.95343 0.203678 7.8631 0.113354 7.75153 0.0584514C7.4717 -0.0796909 7.13166 0.0354277 6.99174 0.315254L4.9816 4.39045L0.484887 5.04397C0.360913 5.06168 0.247566 5.12013 0.160784 5.20868C0.0558699 5.31651 -0.00194269 5.46159 4.9848e-05 5.61202C0.00204238 5.76246 0.063677 5.90595 0.17141 6.01097L3.42484 9.18293L2.6562 13.6619C2.63818 13.7661 2.64971 13.8733 2.68948 13.9712C2.72926 14.0692 2.79569 14.1541 2.88125 14.2162C2.9668 14.2784 3.06805 14.3153 3.17353 14.3228C3.279 14.3303 3.38446 14.3081 3.47797 14.2588L7.50004 12.1441L11.5221 14.2588C11.6319 14.3172 11.7594 14.3367 11.8816 14.3154C12.1898 14.2623 12.397 13.9701 12.3439 13.6619L11.5752 9.18293L14.8287 6.01097C14.9172 5.92419 14.9757 5.81084 14.9934 5.68686C15.0412 5.37693 14.8251 5.09002 14.5152 5.04397Z" fill="#FF9C08"/>
</svg>
