<svg width="15" height="15" viewBox="0 0 15 15" fill="none" xmlns="http://www.w3.org/2000/svg">
<path d="M14.5152 5.04398L10.0185 4.39046L8.00834 0.315255C7.95344 0.203678 7.86312 0.113354 7.75154 0.0584515C7.47171 -0.0796911 7.13167 0.0354277 6.99175 0.315255L4.9816 4.39046L0.484888 5.04398C0.360914 5.06169 0.247566 5.12014 0.160784 5.20869C0.05587 5.31652 -0.00194269 5.4616 4.98481e-05 5.61203C0.00204238 5.76247 0.0636771 5.90596 0.171411 6.01098L3.42484 9.18294L2.6562 13.6619C2.63818 13.7661 2.64971 13.8733 2.68949 13.9713C2.72926 14.0692 2.7957 14.1541 2.88125 14.2162C2.96681 14.2784 3.06806 14.3153 3.17353 14.3228C3.279 14.3303 3.38447 14.3082 3.47798 14.2588L7.50005 12.1442L11.5221 14.2588C11.6319 14.3172 11.7594 14.3367 11.8816 14.3155C12.1898 14.2623 12.397 13.9701 12.3439 13.6619L11.5753 9.18294L14.8287 6.01098C14.9172 5.9242 14.9757 5.81085 14.9934 5.68687C15.0412 5.37694 14.8251 5.09003 14.5152 5.04398Z" fill="#FF9C08"/>
</svg>
